<?xml version="1.0" standalone="no"?><!DOCTYPE svg PUBLIC "-//W3C//DTD SVG 1.1//EN" "http://www.w3.org/Graphics/SVG/1.1/DTD/svg11.dtd"><svg t="1768575525568" class="icon" viewBox="0 0 1024 1024" version="1.1" xmlns="http://www.w3.org/2000/svg" p-id="6413" width="256" height="256" xmlns:xlink="http://www.w3.org/1999/xlink"><path d="M470.91606515 373.50791049c63.47220716-20.31205838 155.68142202-17.88854657 193.53472908 44.66186056-28.1592598-2.53927778-56.31851961-5.53945557-84.36201346-8.7711653-1.73107987 3.00017779-5.30792366 8.88584935-7.0390035 11.77134309-42.23834874 3.57792569-78.70679191 26.88907994-104.55722394 59.66491338-12.349091-35.19934524-9.69404726-72.47490438 2.42351182-107.32695173z m-216.96273123-0.46198195c24.3508841-1.84684584 48.7017682-3.00017779 72.93688633-4.27035763a4133.81872128 4133.81872128 0 0 0 32.65898552 30.92898759c-2.65396182 24.69710007-8.1934174 48.93221821-15.23350281 72.70535439-7.50098545-3.57792569-22.61872231-10.61692921-30.12078968-14.07908893-45.12276058-26.08196397-98.6715524-29.89033967-149.10331853-20.88872435 13.38665701-39.23817095 66.12725091-31.85186955 88.86173917-64.39617107z" fill="#FDFEFA" p-id="6414"></path><path d="M506.80676039 466.87045733c33.00628343-27.35106189 76.97571203-30.69745565 118.0596469-31.27520357-39.58438692 36.46844316-39.46862096 102.71146003 3.8083757 135.6019775-40.50726888-4.15459167-85.63111138-2.19306181-119.79072675-27.9288098-26.19664801-15.8101688-27.46682787-59.31761547-2.07729585-76.39796413z m-396.41728943 51.81663003c10.38647921-52.39329601 63.58797311-66.24193494 109.2884816-70.05031065-33.35141748 39.12240498-28.85060982 93.36254682 0.80819791 133.17738375-44.08519458-3.69260974-90.93903501-19.38809451-110.09667951-63.1270731zM235.02722135 461.79298369c8.53963336 0.11468405 25.73574799 0.46090001 34.27538136 0.57666598 1.73107987 5.07747364 5.19323961 15.00305282 6.80855351 19.96476048-12.00179311 3.23170972-24.00358619 6.34765349-36.00646123 9.46359726L235.02722135 461.79298369zM656.71827685 585.27632019c23.42692022-4.84702362 46.39294042-11.54089308 69.58941062-17.54124868 66.70391688 7.84720142 135.37044557 16.27215075 193.53472909 52.62482795 1.03864792 14.07908895 1.84684584 28.15817787 2.76972779 42.23834874 3.57792569 37.85222513-18.46521256 71.43517454-35.08357928 103.63326006-30.92790567 58.97248143-80.66832177 104.55722394-132.36918584 144.94980878-15.23350282 8.07765142-30.23655563 16.50260075-45.00807653 25.15800009-24.00466812 10.27071324-48.1240203 20.19629242-72.24445437 30.35123968-137.10152542 40.04636886-291.74429953 11.19467711-402.18719503-79.97588982-50.31708209-45.00807654-98.20957046-97.97912045-117.82919689-163.99060541-6.46233752-25.50421606-13.38665701-50.89374808-20.19521049-76.28328008 69.24319466-9.80873129 118.2900969 42.70033068 175.99239847 69.58941063 19.85007644 36.46844316 53.20257585 61.28022728 90.94011694 76.97571204-5.88567156 13.61818892-8.88693126 29.08214175-18.69566256 40.62303485-45.1238425 19.27232852-89.78570305-7.96296739-131.4473858-22.85025423 18.81142853 25.38845009 42.46988068 49.62356822 74.89841619 55.74077169 65.66526896 13.617107 133.98558167 12.46377503 200.68949856 6.69278754 55.39455572-4.15459167 103.17236005-54.70212377 96.36380654-111.7119934-17.1950327 23.08070424-26.88907994 53.89392588-52.27861196 69.58941062-54.81788975 24.11935216-133.98558167 23.65845217-164.5683533-36.69889317 37.1608751-16.73413269 67.97409674-43.50744667 91.97876486-76.28328009 69.47364467-31.85186955 115.98235106-99.36398435 190.1872534-121.75225664 1.27017985-2.76972779 3.69369166-8.30918336 4.96278959-11.07891115m-129.83098999 349.33191707c-55.16410572 12.46377503-111.25109339-1.73107987-165.72168524-11.30936115 5.19323961 42.81501473 49.16266821 29.08214175 77.55237801 37.27555914 26.19664801 26.42817994 66.70391688 17.77278061 99.47866838 12.57954102 39.23817095-12.80999102 81.13030372-33.69871538 95.09470861-76.16751413-36.23799316 10.61692921-70.51337453 26.42709802-106.40406976 37.62177512z" fill="#FDFEFA" p-id="6415"></path><path d="M803.74429953-1.90597054H820.13221625c28.62015982 23.08070424 56.66365366 48.58600222 71.78247243 82.97606764 34.85204734 73.97553425 56.66365366 157.18205188 46.27717445 239.35100352-7.27053545 37.27555915 11.77134309 71.55094051 21.46539036 106.51875381 56.43320366 181.99491791-19.96476047 393.64756165-175.30104847 502.5909092-106.74920381 77.43661205-247.54442091 107.55740173-376.10523104 76.51373009-111.13532742-25.96619799-213.38480553-92.6711968-277.55052657-187.53437348C46.80149785 698.9509254 20.14286789 537.49851587 73.34436182 399.93500852c43.39276263-93.01633085-5.88567156-193.07274713-19.85007645-287.12772592-9.11629935-43.85474457 38.08375706-78.4763419 78.59102595-71.0900405 67.74364673 8.42494932 121.06090663 53.43302586 177.26257834 87.70840722C354.12551618 118.46142221 396.01764894 96.64981589 442.41058937 91.57234227c74.78265024-14.07908895 150.83439838-0.80819791 223.1935368 19.04187851 46.27825638-36.92934318 73.39778634-105.82632186 138.14017336-112.52019132m-30.81322162 38.54573901c-28.50439385 37.62177512-58.39473353 74.78265024-94.17074474 105.7105559-29.1968258 2.65504374-56.54788769-13.617107-85.05336347-18.46413062-98.32533641-16.96458269-202.53634438-3.34747569-290.35943564 45.23852653-55.16410572-50.31708209-121.8680226-94.17074474-198.72796869-98.09488642-8.65539933 9.46359725-17.31079867 18.81142853-25.85151395 28.27502578 19.73431048 63.70373908 33.00628343 129.36900805 40.85348486 195.49625895 14.08017087-16.15638477 27.58259383-32.77475149 40.7388008-49.73933419 7.96296739 0 24.00358619-0.23153194 32.08231955-0.23153194-22.61980423 46.27825638-61.74220922 82.86138359-78.70679189 132.25450181-52.85527795 113.90505522-43.62321264 246.27532298-4.15459169 362.60389002l8.30918336-16.96458271c19.61962644 66.01148494 67.51211478 118.98252884 117.82919689 163.99060541 110.44289548 91.17056695 265.0856696 120.02225869 402.18719503 79.97588982 24.12043409-10.15494727 48.23978626-20.08052645 72.24445437-30.35123968 14.7715209-8.65539933 29.7745737-17.08034866 45.00807653-25.15800009 51.70086407-40.39258483 101.44128019-85.97732734 132.36918584-144.94980878 16.61836672-32.19808552 38.66150497-65.78103494 35.08357928-103.63326006l20.31097644-0.80819789c-0.34621597-71.43625648 9.92557918-144.25629492-8.07765142-214.30768749-15.00305282-66.24301687-50.08663209-125.90684833-91.97876486-178.53167625-1.6153139-39.35393691-36.00646123-60.35734533-63.81842312-81.93850165 14.42530492-39.92952098 28.96637578-80.55255581 28.50439385-123.71378651 23.31223618 40.96816889 41.77744872 84.47669748 54.00969184 130.06144001 1.50062986 38.42997303 8.5407153 81.82273566 47.89357027 99.47975029-0.69243195-81.01453775-19.50386048-166.18366719-67.39634882-232.88866598-15.00305282-24.69601814-43.50852859-25.38845009-69.12851062-23.31115426z" fill="#9F4B06" p-id="6416"></path><path d="M468.49255333 480.83486222c25.85043203-32.77583342 62.31887519-56.08698767 104.55722394-59.66491338 57.24031963-2.76972779 129.94567403-11.07891114 172.53023876 35.89069525 29.7745737 35.19934524 15.69548476 85.05444539-19.27232856 110.67442742-23.19647021 6.0003556-46.16249041 12.69422506-69.58941062 17.54124868-56.54896962 3.57792569-122.79090456 7.3863014-167.91474706-33.3524994-21.23494033-17.4254827-20.08052645-46.27717446-20.31097646-71.08895857M506.80676039 466.87045733c-25.38953202 17.08034866-24.11935216 60.58779533 2.07729585 76.39796413 34.15961539 25.73574799 79.28345789 23.77421812 119.79072675 27.9288098-43.27699666-32.89051746-43.39276263-99.13353433-3.8083757-135.6019775-41.08393485 0.5777479-85.05336346 3.92414167-118.0596469 31.27520357m145.06449283 2.1930618c15.11773685 4.84702362 30.23655563 4.61549171 45.3542925-0.57774791-0.57666599-16.27215075-17.08034866-21.69584036-27.69727786-30.5816897-8.65539933 9.00161531-22.85025424 16.15638477-17.65701464 31.15943761z m-555.90708717 61.39491132c-10.04026323-45.46897655 32.42853552-77.43661205 69.1274287-93.01633084 50.43176614-9.00161531 103.98055797-5.19323961 149.10331853 20.88872435 21.58115632 28.38970981 37.39132511 71.08895856 7.96296738 100.17110032-59.54914741 60.93401131-189.26437144 55.04833976-226.19371461-28.04349383m14.42530491-11.77134309c19.15764451 43.7389786 66.01148494 59.43446336 110.09667951 63.1270731-29.65880773-39.81483693-34.15961539-94.05497877-0.80819791-133.17738375-45.70050847 3.80837571-98.90200241 17.65701464-109.2884816 70.05031065M235.02722135 461.79298369l5.07747364 30.00502372c12.00287502-3.11594376 24.00466812-6.23188752 36.00646123-9.46359726-1.6153139-4.96170767-5.07747364-14.88728686-6.80855351-19.96476048-8.53963336-0.11576596-25.73574799-0.46198194-34.27538136-0.57666598z m87.59264125 208.65246595c49.39311822-0.80819791 120.59892467-12.92575698 138.94837126 47.66203834-24.00466812 32.77583342-54.81788975 59.54914741-91.97876486 76.28328009 30.58277162 60.35734533 109.75046354 60.81824533 164.5683533 36.69889317 25.38953202-15.69548476 35.08357928-46.50870638 52.27861196-69.58941062 6.8085535 57.00986964-40.96925081 107.55740173-96.36380654 111.7119934-66.70391688 5.77098751-135.02422959 6.92431946-200.68949856-6.69278754-32.42853552-6.11720347-56.08698767-30.35232162-74.89841619-55.74077169 41.66168275 14.88728686 86.32354331 42.12258278 131.4473858 22.85025423 9.80873129-11.54089308 12.80999102-27.00484592 18.69566256-40.62303485-37.73754108-15.69548476-71.0900405-40.50726888-90.94011694-76.97571204 12.11755907-14.7715209 24.23511813-29.54304177 36.46844318-44.31564458 2.07729585 9.57936321 6.34765349 28.85169174 8.53963336 38.42997304 0.92396389-9.92449726 2.88549374-29.7745737 3.92414167-39.69907095z" fill="#9F4B06" p-id="6417"></path><path d="M772.93107791 36.63976847c25.61998202-2.07729585 54.12545781-1.3848639 69.12851062 23.31115426 47.89248836 66.70499882 66.70391688 151.87412824 67.39634882 232.88866598-39.352855-17.65701464-46.39294042-61.04977727-47.89357027-99.47975029-12.23224311-45.58474251-30.69745565-89.0932711-54.00969184-130.06144001 0.46198194 43.1612307-14.07908895 83.78426554-28.50439385 123.71378651 27.81196191 21.58115632 62.20310923 42.58456471 63.81842312 81.93850165 41.89213276 52.62482795 76.97571203 112.28865939 91.97876486 178.53167625 18.00323062 70.05139258 7.73143545 142.87143102 8.07765142 214.30768749l-20.31097644 0.80819789c-0.92288196-14.08017087-1.73107987-28.1592598-2.76972779-42.23834874-58.16428352-36.35267719-126.83081219-44.77762652-193.53472909-52.62482795 34.9678133-25.61998202 49.04690225-75.47508219 19.27232856-110.67442742-42.58456471-46.96960641-115.28991911-38.66042305-172.53023876-35.89069525 1.73107987-2.88549374 5.30792366-8.7711653 7.0390035-11.77134309 28.04349384 3.23170972 56.20275365 6.23188752 84.36201346 8.7711653-37.85330705-62.55040713-130.06252191-64.97391894-193.53472908-44.66186056-12.11755907 34.85204734-14.77260282 72.12760649-2.42351182 107.32695173 0.23045001 24.81178411-0.92396389 53.66347587 20.31097646 71.08895857 45.1238425 40.73880081 111.36577743 36.9304251 167.91474706 33.3524994-1.26909794 2.76972779-3.69260974 8.30918336-4.96278959 11.07891115-74.20490234 22.3882723-120.71360872 89.9003871-190.1872534 121.75225664-18.34944659-60.58779533-89.55525304-48.47023626-138.94837126-47.66203834-1.03864792 9.92449726-3.00017779 29.7745737-3.92414167 39.69907095-2.19197988-9.5782813-6.46233752-28.85060982-8.53963336-38.42997304-12.23332503 14.77260282-24.3508841 29.54412368-36.46844318 44.31564458-57.70230159-26.88907994-106.74920381-79.39814193-175.99239847-69.58941063 6.8085535 25.38953202 13.73287297 50.77906404 20.19521049 76.28328008l-8.30918336 16.96458271c-39.46862096-116.32856703-48.70068627-248.6988348 4.15459169-362.60389002 16.96458269-49.39311822 56.08698767-85.97624542 78.70679189-132.25450181-8.07873335 0-24.11935216 0.23153194-32.08231955 0.23153194a1123.99015734 1123.99015734 0 0 1-40.7388008 49.73933419c-7.84720142-66.12725091-21.11917438-131.79251986-40.85348486-195.49625895 8.5407153-9.46359725 17.19611462-18.81142853 25.85151395-28.27502578 76.85994607 3.92414167 143.56386297 47.77780431 198.72796869 98.09488642 87.82309126-48.58600222 192.03409923-62.20310923 290.35943564-45.23852653 28.50547578 4.84702362 55.85653767 21.11917438 85.05336347 18.46413062 35.77601122-30.92790567 65.66635089-68.08878077 94.17074474-105.7105559M253.95333392 373.04592854c-22.73448827 32.54430149-75.47508219 25.15800008-88.86173917 64.39617107-36.69889318 15.5797188-79.16769193 47.54735431-69.1274287 93.01633084 36.92934318 83.0918336 166.64456719 88.97750514 226.19371461 28.04349383 29.42835772-29.08214175 13.61818892-71.78139051-7.96296738-100.17110032 7.50206736 3.46215974 22.61980423 10.50116323 30.12078968 14.07908893 7.04008542-23.77313618 12.57954101-48.00825432 15.23350281-72.70535439a4133.77869006 4133.77869006 0 0 1-32.65898552-30.92898759c-24.23511813 1.27017985-48.58600222 2.42351181-72.93688633 4.27035763z" fill="#FEE173" p-id="6418"></path><path d="M651.87125322 469.06351913c-5.19323961-15.00305282 9.00161531-22.1578223 17.65701464-31.15943761 10.61692921 8.88584935 27.12061189 14.30953895 27.69727786 30.5816897-15.11773685 5.19323961-30.23655563 5.42477153-45.3542925 0.57774791zM526.88728686 934.60823726c35.89069526-11.19467711 70.16607662-27.00484592 106.40406976-37.62177512-13.96440491 42.46879875-55.85653767 63.35752312-95.09470861 76.16751413-32.77475149 5.19323961-73.28202037 13.84863893-99.47866838-12.57954102-28.38970981-8.1934174-72.35913842 5.53945557-77.55237801-37.27555914C415.63619345 932.8771574 471.72318114 947.07201229 526.88728686 934.60823726z" fill="#FEE173" p-id="6419"></path></svg>